<svg width="76" height="52" viewBox="0 0 76 52" fill="none" xmlns="http://www.w3.org/2000/svg">
<path d="M2.80425 13.5306C2.77136 14.2679 2.80255 15.0196 2.80272 15.7585L2.80285 41.5272C2.80208 47.8734 3.11146 49.3511 9.91764 49.3341L14.2287 49.3253C15.1813 49.3149 16.7159 49.0862 16.9311 50.3674C17.2623 52.3407 13.7066 51.7858 12.6694 51.7856L8.89127 51.7835C7.89827 51.7822 6.84958 51.8443 5.87169 51.65C1.37752 50.7575 0.312392 47.1474 0.313583 43.253L0.315475 9.5291C0.315901 8.66706 0.272851 7.77016 0.378272 6.91471C0.790903 3.56668 3.53081 1.10917 6.82833 0.702921C8.21992 0.643397 9.63978 0.701646 11.0337 0.702071L66.048 0.701218C67.0701 0.701431 68.132 0.655087 69.1471 0.776474C72.4874 1.17593 75.0491 4.09899 75.2513 7.41301C75.3212 8.55991 75.2681 9.73743 75.2683 10.8873L75.2696 22.7909C75.2694 23.7154 75.327 24.6799 75.236 25.5992C75.1086 26.884 72.7693 28.0618 72.8048 24.3779L72.8036 13.5306C65.9285 13.4879 59.0471 13.6205 52.1733 13.5306C51.1033 12.8741 46.3614 4.56456 45.4972 3.16021L10.92 3.15872C3.82403 3.15787 2.77848 3.83156 2.80425 11.054H13.1094L42.8135 11.0525C43.6938 11.0516 46.7566 10.7589 47.3703 11.3763C47.8503 11.859 47.8737 12.6845 47.382 13.166C46.8225 13.7143 45.6954 13.5298 44.986 13.5298L2.80425 13.5306ZM48.4588 3.16021C48.6633 3.66532 48.9987 4.1464 49.2828 4.61112L52.2957 9.48275C52.6146 10.0027 52.9131 10.5559 53.2628 11.054C55.076 11.0542 72.6813 11.112 72.8036 11.054C72.8157 6.20381 72.7302 3.14575 66.9272 3.15575L50.3718 3.16489C49.7477 3.16701 49.0782 3.21931 48.4588 3.16021Z" fill="#86FBFB"/>
<path d="M10.8626 8.42083C10.065 8.42275 8.0835 8.5892 7.44404 8.18614C6.33008 7.48375 7.02609 6.03051 8.17683 5.86724C8.99784 5.86405 10.6413 5.70546 11.3388 6.0911C12.4692 6.71589 11.9779 8.17381 10.8626 8.42083Z" fill="#86FBFB"/>
<path d="M18.5807 8.42092C17.7684 8.42687 15.9121 8.58822 15.2501 8.21407C14.0888 7.5576 14.7406 6.1641 15.8209 5.86733C16.6995 5.86031 18.2882 5.68769 19.0454 6.08778C20.1743 6.68408 19.6143 8.12244 18.5807 8.42092Z" fill="#86FBFB"/>
<path d="M26.24 8.42086C25.4619 8.44531 23.6764 8.57626 23.0361 8.21827C21.9443 7.60793 22.5263 6.10197 23.5873 5.86727C24.4334 5.86132 25.8814 5.71102 26.6248 6.05563C27.8482 6.62281 27.2929 8.07243 26.24 8.42086Z" fill="#86FBFB"/>
<path d="M35.3804 41.6875C34.4716 41.7054 33.8147 41.0887 33.9575 40.1848C34.3077 37.9717 34.8674 35.744 35.3772 33.5644L37.0777 26.1436C37.4578 24.4816 37.5424 21.0496 39.1583 20.5445C40.0018 20.5088 40.4038 21.0103 40.6411 21.7673L37.4418 35.8916C37.0766 37.5202 36.9529 41.1108 35.3804 41.6875Z" fill="#86FBFB"/>
<path d="M51.0246 30.5289C49.3594 29.7353 47.3596 28.4628 45.7129 27.5348C44.6889 26.9579 42.2086 26.011 43.3573 24.4664C43.5854 24.1596 43.8774 24.066 44.241 24.0052C45.0261 24.072 45.663 24.6351 46.3237 25.0144L49.5814 26.8469C50.3454 27.2727 53.0455 28.3709 53.3858 29.1209C53.6092 29.6129 53.5878 33.598 53.3626 33.9911C53.1503 34.362 45.6727 38.3143 44.509 38.6061C43.5953 38.6193 42.9737 37.7532 43.2605 36.8659C43.5248 36.0474 45.1904 35.5292 45.8824 35.1803L51.0246 32.6429V30.5289Z" fill="#86FBFB"/>
<path d="M31.3803 38.606C30.4132 38.7123 28.7076 37.4589 27.8422 36.9993L24.7021 35.3377C24.2078 35.0779 22.4338 34.3311 22.2099 33.8124C21.9242 33.1502 21.8885 29.4446 22.1833 28.7894C22.4567 28.1814 23.8224 27.7282 24.3806 27.4633L26.5284 26.4222C27.9289 25.7432 29.6506 24.7892 31.0773 24.2636C32.0705 24.1527 33.0199 24.982 32.5318 26.0351C32.2665 26.6074 25.603 29.7767 24.5435 30.1604V32.4429C25.343 32.7973 31.8703 36.1094 32.2208 36.7057C32.6781 37.484 32.0525 38.2306 31.3803 38.606Z" fill="#86FBFB"/>
<path d="M21.2621 51.7814C20.4035 51.7623 19.7028 51.142 19.9603 50.2059C20.2808 49.041 21.7757 49.3286 22.6916 49.3286L63.1485 49.3303C66.4906 49.3305 71.4105 50.2085 72.6356 46.0412C72.9554 44.9536 72.8053 41.9421 72.8051 40.6179L72.8063 33.3327C72.8042 32.0959 72.3206 30.2679 73.6675 29.6073L73.7334 29.5757C74.9851 29.5217 75.2677 30.3737 75.2704 31.4804L75.267 40.2067C75.2694 42.0169 75.449 44.9595 75.0287 46.6349C73.6356 52.1858 68.369 51.7829 64.0584 51.7806L21.2621 51.7814Z" fill="#86FBFB"/>
</svg>
